<?xml version="1.0" encoding="UTF-8"?>
<!-- Created with Inkscape (http://www.inkscape.org/) -->
<svg width="153.83mm" height="162.68mm" version="1.1" viewBox="0 0 153.83 162.68" xmlns="http://www.w3.org/2000/svg"><g transform="translate(-16.754 -25.387)"><path d="m93.667 26.012 42.547 19.621-13.631 27.986 6.8157 6.6092-7.3321 7.8484-0.99981 17.309 14.034 24.724 3.937 38.453-5.9623 12.666" style="fill:none;paint-order:fill markers stroke;stroke-linecap:round;stroke-linejoin:round;stroke-opacity:.99776;stroke-width:1.25;stroke:#fff"/><path d="m128.36 101 27.801 13.034 9.5847 14.411" style="fill:none;paint-order:fill markers stroke;stroke-linecap:round;stroke-linejoin:round;stroke-opacity:.99776;stroke-width:1.25;stroke:#fff"/><path d="m131.65 108.51 15.899 13.148 1.5494 15.153 11.711 11.185 0.68158 11.444" style="fill:none;paint-order:fill markers stroke;stroke-linecap:round;stroke-linejoin:round;stroke-opacity:.99776;stroke-width:1.25;stroke:#fff"/><path d="m110.87 86.545-6.4136 13.718 15.768 30.745-7.5878 21.318 2.8058 10.48" style="fill:none;paint-order:fill markers stroke;stroke-linecap:round;stroke-linejoin:round;stroke-opacity:.99776;stroke-width:1.25;stroke:#fff"/><path d="m111.12 75.649 6.6366-0.11492a2.0387 2.0387 51.392 0 1 2.0154 2.5239l-1.3732 5.6005a3.3729 3.3729 141.89 0 1-3.2759 2.5697h-0.85281a566.6 566.6 0.26755 0 1-5.2916-0.02471l-0.23342-0.0022a2.1337 2.1337 51.651 0 1-2.061-2.6051l1.2057-5.3209a3.3719 3.3719 140.89 0 1 3.2302-2.6262z" style="fill:none;paint-order:fill markers stroke;stroke-linejoin:round;stroke-opacity:.99776;stroke-width:1.25;stroke:#fff"/><circle cx="166.96" cy="131.78" r="3" style="fill-opacity:0;paint-order:fill markers stroke;stroke-linecap:round;stroke-linejoin:round;stroke-opacity:.99776;stroke-width:1.25;stroke:#fff"/><circle cx="131.65" cy="184.44" r="3" style="fill-opacity:0;paint-order:fill markers stroke;stroke-linecap:round;stroke-linejoin:round;stroke-opacity:.99776;stroke-width:1.25;stroke:#fff"/><circle cx="116.29" cy="166.14" r="3" style="fill-opacity:0;paint-order:fill markers stroke;stroke-linecap:round;stroke-linejoin:round;stroke-opacity:.99776;stroke-width:1.25;stroke:#fff"/><circle cx="161.26" cy="162.69" r="3" style="fill-opacity:0;paint-order:fill markers stroke;stroke-linecap:round;stroke-linejoin:round;stroke-opacity:.99776;stroke-width:1.25;stroke:#fff"/><path d="m93.667 26.012-42.547 19.621 13.631 27.986-6.8157 6.6092 7.3321 7.8484 0.99981 17.309-14.034 24.724-3.937 38.453 5.9623 12.666" style="fill:none;paint-order:fill markers stroke;stroke-linecap:round;stroke-linejoin:round;stroke-opacity:.99776;stroke-width:1.25;stroke:#fff"/><path d="m58.973 101-27.801 13.034-9.5847 14.411" style="fill:none;paint-order:fill markers stroke;stroke-linecap:round;stroke-linejoin:round;stroke-opacity:.99776;stroke-width:1.25;stroke:#fff"/><path d="m55.683 108.51-15.899 13.148-1.5494 15.153-11.711 11.185-0.68158 11.444" style="fill:none;paint-order:fill markers stroke;stroke-linecap:round;stroke-linejoin:round;stroke-opacity:.99776;stroke-width:1.25;stroke:#fff"/><path d="m76.465 86.545 6.4136 13.718-15.768 30.745 7.5878 21.318-2.8058 10.48" style="fill:none;paint-order:fill markers stroke;stroke-linecap:round;stroke-linejoin:round;stroke-opacity:.99776;stroke-width:1.25;stroke:#fff"/><path d="m76.214 75.649-6.6366-0.11492a2.0387 2.0387 128.61 0 0-2.0154 2.5239l1.3732 5.6005a3.3729 3.3729 38.112 0 0 3.2759 2.5697h0.85279a566.6 566.6 179.73 0 0 5.2916-0.02471l0.23342-0.0022a2.1337 2.1337 128.35 0 0 2.061-2.6051l-1.2057-5.3209a3.3719 3.3719 39.112 0 0-3.2302-2.6262z" style="fill:none;paint-order:fill markers stroke;stroke-linejoin:round;stroke-opacity:.99776;stroke-width:1.25;stroke:#fff"/><circle transform="scale(-1,1)" cx="-20.379" cy="131.78" r="3" style="fill-opacity:0;paint-order:fill markers stroke;stroke-linecap:round;stroke-linejoin:round;stroke-opacity:.99776;stroke-width:1.25;stroke:#fff"/><circle transform="scale(-1,1)" cx="-55.684" cy="184.44" r="3" style="fill-opacity:0;paint-order:fill markers stroke;stroke-linecap:round;stroke-linejoin:round;stroke-opacity:.99776;stroke-width:1.25;stroke:#fff"/><circle transform="scale(-1,1)" cx="-71.042" cy="166.14" r="3" style="fill-opacity:0;paint-order:fill markers stroke;stroke-linecap:round;stroke-linejoin:round;stroke-opacity:.99776;stroke-width:1.25;stroke:#fff"/><circle transform="scale(-1,1)" cx="-26.075" cy="162.69" r="3" style="fill-opacity:0;paint-order:fill markers stroke;stroke-linecap:round;stroke-linejoin:round;stroke-opacity:.99776;stroke-width:1.25;stroke:#fff"/><rect x="84.515" y="39.606" width="18.054" height="12.628" ry=".46302" style="fill-opacity:0;paint-order:fill markers stroke;stroke-linecap:round;stroke-linejoin:round;stroke-opacity:.99776;stroke-width:1.25;stroke:#fff"/><circle transform="scale(-1,1)" cx="-93.542" cy="31.094" r="1.1959" style="fill-opacity:0;paint-order:fill markers stroke;stroke-linecap:round;stroke-linejoin:round;stroke-opacity:.99776;stroke-width:1.25;stroke:#fff"/><circle transform="scale(-1,1)" cx="-75.373" cy="41.547" r="1.1959" style="fill-opacity:0;paint-order:fill markers stroke;stroke-linecap:round;stroke-linejoin:round;stroke-opacity:.99776;stroke-width:1.25;stroke:#fff"/><ellipse transform="scale(-1,1)" cx="-67.117" cy="41.056" rx="1.196" ry="1.1959" style="fill-opacity:0;paint-order:fill markers stroke;stroke-linecap:round;stroke-linejoin:round;stroke-opacity:.99776;stroke-width:1.25;stroke:#fff"/><circle transform="scale(-1,1)" cx="-59.821" cy="50.126" r="1.1959" style="fill-opacity:0;paint-order:fill markers stroke;stroke-linecap:round;stroke-linejoin:round;stroke-opacity:.99776;stroke-width:1.25;stroke:#fff"/><circle transform="scale(-1,1)" cx="-64.311" cy="58.409" r="1.1959" style="fill-opacity:0;paint-order:fill markers stroke;stroke-linecap:round;stroke-linejoin:round;stroke-opacity:.99776;stroke-width:1.25;stroke:#fff"/><circle transform="scale(-1,1)" cx="-78.787" cy="56.351" r="1.1959" style="fill-opacity:0;paint-order:fill markers stroke;stroke-linecap:round;stroke-linejoin:round;stroke-opacity:.99776;stroke-width:1.25;stroke:#fff"/><path d="m99.834 39.232v-7.4284l28.635 13.205v3.2651" style="fill:none;stroke-linecap:round;stroke-linejoin:round;stroke-opacity:.99776;stroke-width:1.25;stroke:#fff"/><path d="m102.67 41.262h6.0854" style="fill:none;stroke-linecap:round;stroke-linejoin:round;stroke-opacity:.99776;stroke-width:1.25;stroke:#fff"/><path d="m102.6 45.165h20.108v17.462h-6.9453v-9.2604" style="fill:none;stroke-linecap:round;stroke-linejoin:round;stroke-opacity:.99776;stroke-width:1.25;stroke:#fff"/><path d="m102.67 49.597h7.6068v7.4745" style="fill:none;stroke-linecap:round;stroke-linejoin:round;stroke-opacity:.99776;stroke-width:1.25;stroke:#fff"/><path d="m100.09 52.309v10.517l16.278 7.5067v4.9662" style="fill:none;stroke-linecap:round;stroke-linejoin:round;stroke-opacity:.99776;stroke-width:1.25;stroke:#fff"/><path d="m86.933 52.499v10.186l-16.278 7.5067v5.2176" style="fill:none;stroke-linecap:round;stroke-linejoin:round;stroke-opacity:.99776;stroke-width:1.25;stroke:#fff"/><path d="m78.787 66.332h-6.4823l-6.8792-6.8792" style="fill:none;stroke-linecap:round;stroke-linejoin:round;stroke-opacity:.99776;stroke-width:1.25;stroke:#fff"/><path d="m84.41 50.126h-12.303v6.2177h5.4901" style="fill:none;stroke-linecap:round;stroke-linejoin:round;stroke-opacity:.99776;stroke-width:1.25;stroke:#fff"/><path d="m84.476 45.231h-19.381v4.8948" style="fill:none;stroke-linecap:round;stroke-linejoin:round;stroke-opacity:.99776;stroke-width:1.25;stroke:#fff"/><path d="m84.344 41.593h-7.4745" style="fill:none;stroke-linecap:round;stroke-linejoin:round;stroke-opacity:.99776;stroke-width:1.25;stroke:#fff"/><path d="m86.46 39.344-0.13229-7.0776-17.742 8.1818" style="fill:none;stroke-linecap:round;stroke-linejoin:round;stroke-opacity:.99776;stroke-width:1.25;stroke:#fff"/><path d="m93.542 39.419v-7.2965" style="fill:none;stroke-linejoin:round;stroke-opacity:.99776;stroke-width:1.25;stroke:#fff"/><circle transform="scale(-1,1)" cx="-119.68" cy="67.059" r="1.1959" style="fill-opacity:0;paint-order:fill markers stroke;stroke-linecap:round;stroke-linejoin:round;stroke-opacity:.99776;stroke-width:1.25;stroke:#fff"/><circle transform="scale(-1,1)" cx="-78.787" cy="60.49" r="1.1959" style="fill-opacity:0;paint-order:fill markers stroke;stroke-linecap:round;stroke-linejoin:round;stroke-opacity:.99776;stroke-width:1.25;stroke:#fff"/><path d="m109.28 67.059h9.062" style="fill:none;stroke-linecap:round;stroke-linejoin:round;stroke-opacity:.99776;stroke-width:1.25;stroke:#fff"/><path d="m78.787 66.332v-4.6302" style="fill:none;stroke-linecap:round;stroke-linejoin:round;stroke-opacity:.99776;stroke-width:1.25;stroke:#fff"/><circle transform="scale(-1,1)" cx="-115.78" cy="51.74" r="1.1959" style="fill-opacity:0;paint-order:fill markers stroke;stroke-linecap:round;stroke-linejoin:round;stroke-opacity:.99776;stroke-width:1.25;stroke:#fff"/><circle transform="scale(-1,1)" cx="-110.24" cy="58.427" r="1.1959" style="fill-opacity:0;paint-order:fill markers stroke;stroke-linecap:round;stroke-linejoin:round;stroke-opacity:.99776;stroke-width:1.25;stroke:#fff"/><circle transform="scale(-1,1)" cx="-110.16" cy="41.246" r="1.1959" style="fill-opacity:0;paint-order:fill markers stroke;stroke-linecap:round;stroke-linejoin:round;stroke-opacity:.99776;stroke-width:1.25;stroke:#fff"/><circle transform="scale(-1,1)" cx="-128.51" cy="49.802" r="1.1959" style="fill-opacity:0;paint-order:fill markers stroke;stroke-linecap:round;stroke-linejoin:round;stroke-opacity:.99776;stroke-width:1.25;stroke:#fff"/><path d="m87.89 41.73 5.652 0.43611 5.652-0.43611a1.0651 1.0651 46.75 0 1 1.1369 1.2086l-0.41425 2.9809 0.41433 2.9827a1.0633 1.0633 133.3 0 1-1.1368 1.2064l-5.6522-0.4456-5.6522 0.4456a1.0604 1.0604 46.777 0 1-1.1333-1.2059l0.42251-2.9832-0.42244-2.9814a1.0622 1.0622 133.17 0 1 1.1334-1.2081z" style="fill:none;stroke-linecap:round;stroke-linejoin:round;stroke-opacity:.99776;stroke-width:1.25;stroke:#fff"/><path d="m65.095 50.126h-3.3335" style="fill:none;stroke-linecap:round;stroke-linejoin:round;stroke-opacity:.99776;stroke-width:1.25;stroke:#fff"/><circle transform="scale(-1,1)" cx="-93.542" cy="71.357" r="1.1959" style="fill-opacity:0;paint-order:fill markers stroke;stroke-linecap:round;stroke-linejoin:round;stroke-opacity:.99776;stroke-width:1.25;stroke:#fff"/><path d="m94.975 52.387-3.0886 11.195h3.4291l-1.773 6.4263" style="fill:none;stroke-linecap:round;stroke-linejoin:round;stroke-opacity:.99776;stroke-width:1.25;stroke:#fff"/></g></svg>
